<svg width="100" height="101" viewBox="0 0 100 101" fill="none" xmlns="http://www.w3.org/2000/svg">
<g clip-path="url(#clip0_511_1949)">
<path d="M38.004 77.355C27.41 78.853 20 82.435 20 87.706C20 94.806 32.381 100.563 50 100.563C67.619 100.563 80 94.807 80 87.706C80 82.434 72.59 78.853 61.997 77.356L60.529 79.855C68.514 80.962 74 83.291 74 85.992C74 89.779 63.255 92.849 50 92.849C36.745 92.849 26 89.779 26 85.992C25.999 83.3 31.45 80.974 39.459 79.862C38.975 79.026 38.489 78.192 38.004 77.355Z" fill="#A5481F"/>
<path fill-rule="evenodd" clip-rule="evenodd" d="M50 0.563023C49.963 0.563102 49.926 0.563769 49.889 0.565023C49.8733 0.565584 49.8577 0.566251 49.842 0.567023C49.8317 0.567643 49.8213 0.56831 49.811 0.569023C49.7763 0.570507 49.7416 0.572507 49.707 0.575023C49.679 0.578017 49.651 0.581351 49.623 0.585023C49.6023 0.586506 49.5817 0.588172 49.561 0.590023C49.5236 0.595417 49.4862 0.601418 49.449 0.608023C49.4333 0.610583 49.4176 0.613249 49.402 0.616023C49.3739 0.620681 49.3459 0.625681 49.318 0.631023C49.2926 0.636075 49.2673 0.641408 49.242 0.647023C49.227 0.650257 49.212 0.653591 49.197 0.657023C49.1538 0.667204 49.1108 0.678206 49.068 0.690023C49.0281 0.700985 48.9885 0.712654 48.949 0.725023C48.9242 0.73308 48.8996 0.741414 48.875 0.750023C48.8391 0.76211 48.8035 0.774778 48.768 0.788023C48.7192 0.806275 48.6709 0.825613 48.623 0.846023C48.5857 0.861713 48.5487 0.878049 48.512 0.895023C48.4875 0.906407 48.4632 0.918075 48.439 0.930023C48.4054 0.947149 48.372 0.964818 48.339 0.983023C48.2972 1.00551 48.2559 1.02885 48.215 1.05302C48.211 1.05501 48.207 1.05701 48.203 1.05902C48.1714 1.07819 48.14 1.09786 48.109 1.11802C48.0661 1.1451 48.0237 1.1731 47.982 1.20202C47.9803 1.20402 47.9787 1.20602 47.977 1.20802C47.946 1.23019 47.9153 1.25286 47.885 1.27602C47.8682 1.28821 47.8516 1.30054 47.835 1.31302C47.8141 1.32945 47.7935 1.34612 47.773 1.36302C47.7494 1.38271 47.7261 1.40272 47.703 1.42302C47.7003 1.42535 47.6977 1.42769 47.695 1.43002C47.6673 1.45426 47.6399 1.47893 47.613 1.50402C47.5745 1.53984 47.5368 1.57651 47.5 1.61402C47.4673 1.64771 47.4353 1.68205 47.404 1.71702C47.3963 1.72499 47.3886 1.73299 47.381 1.74102C47.3675 1.75657 47.3542 1.77224 47.341 1.78802C47.3155 1.8176 47.2905 1.84761 47.266 1.87802C47.26 1.88566 47.254 1.89333 47.248 1.90102C47.22 1.93715 47.1926 1.97382 47.166 2.01102C47.1379 2.04979 47.1105 2.08913 47.084 2.12902C47.0813 2.13235 47.0787 2.13568 47.076 2.13902C47.0562 2.17005 47.0368 2.20139 47.018 2.23302C46.9978 2.26537 46.9781 2.29804 46.959 2.33102C46.9464 2.35355 46.9341 2.37622 46.922 2.39902C46.92 2.40235 46.918 2.40569 46.916 2.40902C46.8988 2.44209 46.8821 2.47543 46.866 2.50902C46.8502 2.54046 46.8349 2.57213 46.82 2.60402C46.8066 2.63251 46.7936 2.66118 46.781 2.69002C46.7803 2.69136 46.7797 2.69269 46.779 2.69402C46.7651 2.72748 46.7518 2.76115 46.739 2.79502C46.7244 2.83145 46.7104 2.86812 46.697 2.90502C46.6891 2.92894 46.6814 2.95294 46.674 2.97702C46.6706 2.98534 46.6673 2.99368 46.664 3.00202C46.6501 3.04676 46.6371 3.09177 46.625 3.13702C46.6237 3.14302 46.6223 3.14902 46.621 3.15502C46.6122 3.18724 46.6039 3.21957 46.596 3.25202C46.5843 3.30079 46.5736 3.3498 46.564 3.39902C46.5567 3.43724 46.55 3.47558 46.544 3.51402C46.5404 3.53932 46.5371 3.56465 46.534 3.59002C46.5323 3.60002 46.5306 3.61002 46.529 3.62002C46.5239 3.66094 46.5196 3.70195 46.516 3.74302C46.5145 3.76101 46.5132 3.77901 46.512 3.79702C46.5088 3.83364 46.5061 3.87032 46.504 3.90702C46.504 3.91536 46.504 3.92369 46.504 3.93202C46.5019 3.97566 46.5005 4.01933 46.5 4.06302V84.063C46.5 84.9913 46.8688 85.8815 47.5251 86.5379C48.1815 87.1943 49.0717 87.563 50 87.563C50.9283 87.563 51.8185 87.1943 52.4749 86.5379C53.1312 85.8815 53.5 84.9913 53.5 84.063V46.336L96.422 27.26C97.0405 26.985 97.5659 26.5365 97.9347 25.9689C98.3035 25.4013 98.4997 24.7389 98.4997 24.062C98.4997 23.3851 98.3035 22.7228 97.9347 22.1552C97.5659 21.5876 97.0405 21.1391 96.422 20.864L51.422 0.864023C51.4044 0.856545 51.3867 0.849211 51.369 0.842023C51.3221 0.822326 51.2747 0.803655 51.227 0.786023C51.2263 0.785356 51.2257 0.784689 51.225 0.784023C51.2237 0.783355 51.2223 0.782688 51.221 0.782023C51.173 0.764299 51.1247 0.747628 51.076 0.732023C51.0257 0.716212 50.975 0.701542 50.924 0.688023C50.8733 0.673539 50.8223 0.660202 50.771 0.648023C50.7199 0.636873 50.6686 0.626871 50.617 0.618023C50.5659 0.60888 50.5145 0.600879 50.463 0.594023C50.4111 0.587191 50.3591 0.581523 50.307 0.577023C50.2541 0.572483 50.2011 0.569149 50.148 0.567023C50.1144 0.565203 50.0807 0.56387 50.047 0.563023C50.0367 0.562977 50.0263 0.562977 50.016 0.563023C50.0107 0.56301 50.0053 0.56301 50 0.563023Z" fill="#A5481F"/>
</g>
<defs>
<clipPath id="clip0_511_1949">
<rect width="100" height="100" fill="none" transform="translate(0 0.562988)"/>
</clipPath>
</defs>
</svg>
