<svg width="84" height="87" viewBox="0 0 84 87" fill="none" xmlns="http://www.w3.org/2000/svg">
<path d="M63.8833 46.0418C62.7 55.896 56.2458 59.8335 53.4583 62.6918C50.6667 65.5585 51.1667 66.1293 51.3542 70.3335C51.3854 70.8537 51.3099 71.3747 51.1321 71.8645C50.9544 72.3544 50.6782 72.8026 50.3206 73.1817C49.9631 73.5607 49.5317 73.8626 49.053 74.0685C48.5743 74.2745 48.0586 74.3803 47.5375 74.3793H36.4625C35.9414 74.3796 35.4257 74.2735 34.9472 74.0673C34.4686 73.8612 34.0372 73.5594 33.6794 73.1806C33.3216 72.8017 33.045 72.3538 32.8665 71.8642C32.6881 71.3746 32.6116 70.8537 32.6417 70.3335C32.6417 66.2085 33.025 65.2502 30.5417 62.6918C27.375 59.5252 19.925 55.0543 19.925 42.7585C19.906 39.7043 20.5199 36.6793 21.728 33.8742C22.9361 31.0691 24.7122 28.5446 26.9444 26.46C29.1765 24.3753 31.8164 22.7757 34.6974 21.7619C37.5785 20.7482 40.6384 20.3422 43.6841 20.5697C46.7298 20.7972 49.6954 21.6532 52.3939 23.0837C55.0925 24.5142 57.4654 26.4883 59.3631 28.8814C61.2608 31.2745 62.6422 34.0348 63.4202 36.9883C64.1981 39.9418 64.3558 43.0244 63.8833 46.0418Z" stroke="#3C6E71" stroke-width="6.25" stroke-linecap="round" stroke-linejoin="round"/>
<path d="M35.5833 74.1501V80.4501C35.5833 82.171 36.5417 83.5835 37.7208 83.5835H46.275C47.4625 83.5835 48.4167 82.1668 48.4167 80.4501V74.1501M38.75 30.2335C36.2897 30.2346 33.9306 31.2127 32.1913 32.9527C30.4521 34.6928 29.475 37.0524 29.475 39.5126M72.55 43.6001H80.1917M64.8583 18.5501L70.2792 13.1293M69.025 64.8335L74.4458 70.2501M42 3.9043V10.0835M13.8333 13.1251L19.2167 18.5501M9.66667 70.2501L15.05 64.8335M11.45 43.6001H3.8125" stroke="#3C6E71" stroke-width="6.25" stroke-linecap="round" stroke-linejoin="round"/>
</svg>
