<svg width="33" height="33" viewBox="0 0 33 33" fill="none" xmlns="http://www.w3.org/2000/svg">
<path d="M0.458416 17.9585L0.458416 15.0418L4.9355 15.0418C5.19936 12.9686 6.01529 11.0043 7.298 9.35433L4.10425 6.18975L6.18967 4.10433L9.35425 7.29808C11.0043 6.01537 12.9685 5.19944 15.0417 4.93558L15.0417 0.458496L17.9584 0.458496L17.9584 4.93558C20.0292 5.19808 21.998 6.01475 23.6459 7.29808L26.8105 4.10433L28.8959 6.18975L25.7022 9.35433C26.9849 11.0043 27.8008 12.9686 28.0647 15.0418L32.5417 15.0418L32.5417 17.9585L28.0647 17.9585C27.8022 20.0293 26.9855 21.9981 25.7022 23.646L28.8959 26.8106L26.8105 28.896L23.6459 25.7022C21.998 26.9856 20.0292 27.8022 17.9584 28.0647L17.9584 32.5418L15.0417 32.5418L15.0417 28.0647C12.9709 27.8022 11.0022 26.9856 9.35425 25.7022L6.18967 28.896L4.10425 26.8106L7.298 23.646C6.01529 21.996 5.19936 20.0317 4.9355 17.9585L0.458416 17.9585ZM16.5001 10.6668C18.0472 10.6668 19.5309 11.2814 20.6249 12.3754C21.7188 13.4693 22.3334 14.9531 22.3334 16.5002L25.2501 16.5002C25.2501 14.1795 24.3282 11.9539 22.6873 10.313C21.0463 8.67203 18.8207 7.75016 16.5001 7.75016L16.5001 10.6668Z" fill="#001C1D"/>
</svg>
