<svg width="74" height="73" viewBox="0 0 74 73" fill="none" xmlns="http://www.w3.org/2000/svg">
<g clip-path="url(#clip0_511_1969)">
<path d="M10 54L10 49L17.5355 49C17.9796 45.4459 19.3529 42.0786 21.5118 39.25L16.1364 33.825L19.6464 30.25L24.9727 35.725C27.7499 33.5261 31.056 32.1273 34.5455 31.675L34.5455 24L39.4545 24L39.4545 31.675C42.94 32.125 46.2536 33.525 49.0273 35.725L54.3536 30.25L57.8636 33.825L52.4882 39.25C54.6471 42.0786 56.0204 45.4459 56.4645 49L64 49L64 54L56.4645 54C56.0227 57.55 54.6482 60.925 52.4882 63.75L57.8636 69.175L54.3536 72.75L49.0273 67.275C46.2536 69.475 42.94 70.875 39.4545 71.325L39.4545 79L34.5455 79L34.5455 71.325C31.06 70.875 27.7464 69.475 24.9727 67.275L19.6464 72.75L16.1364 69.175L21.5118 63.75C19.3529 60.9214 17.9796 57.5541 17.5355 54L10 54ZM37 41.5C39.6039 41.5 42.1012 42.5536 43.9425 44.4289C45.7838 46.3043 46.8182 48.8478 46.8182 51.5L51.7273 51.5C51.7273 47.5218 50.1757 43.7064 47.4138 40.8934C44.6519 38.0804 40.9059 36.5 37 36.5L37 41.5Z" fill="#001C1D"/>
<path d="M72.6329 62.7107C69.4112 60.2274 60.8299 53.3703 52.8375 45.1274C47.5242 39.6463 45.2649 34.1567 41.2376 30.0043C37.5912 26.2423 34.2746 24.0487 34.2746 24.0487L33.3402 25.0123L27.028 18.5056L29.4662 15.9907C29.6631 15.7836 29.7728 15.5088 29.7728 15.223C29.7728 14.9373 29.6631 14.6624 29.4662 14.4553L28.9625 13.9346C28.9625 13.9346 36.1361 4.27911 45.2065 6.94969C46.2613 7.25994 47.1982 7.79405 47.4658 7.52152C47.8272 7.14922 46.445 5.72086 45.636 4.89109C34.1651 -6.84973 21.5067 6.23429 21.5006 6.24159L21.0553 5.78169C20.9594 5.68086 20.844 5.60058 20.7161 5.54573C20.5882 5.49087 20.4505 5.46259 20.3113 5.46259C20.1721 5.46259 20.0344 5.49087 19.9065 5.54573C19.7786 5.60058 19.6632 5.68086 19.5673 5.78169L8.32879 17.3729C8.13019 17.5793 8.01927 17.8547 8.01927 18.1412C8.01927 18.4277 8.13019 18.703 8.32879 18.9095C8.32879 18.9095 9.70242 21.3173 6.09374 21.7504C4.64102 21.9256 3.73216 22.2529 3.21507 22.6848C3.15545 22.7371 0.808466 25.1291 0.808466 25.1291C0.610512 25.3357 0.5 25.6107 0.5 25.8968C0.5 26.1829 0.610512 26.458 0.808466 26.6645L9.22062 35.3418C9.3168 35.4421 9.4323 35.522 9.56016 35.5766C9.68803 35.6311 9.8256 35.6592 9.96462 35.6592C10.1036 35.6592 10.2412 35.6311 10.3691 35.5766C10.4969 35.522 10.6124 35.4421 10.7086 35.3418C10.7086 35.3418 13.0276 32.9206 13.0775 32.8574C13.496 32.3245 13.8148 31.3876 13.9815 29.8887C14.4049 26.1657 16.7373 27.5868 16.7373 27.5868C16.8335 27.6871 16.949 27.767 17.0768 27.8215C17.2047 27.8761 17.3423 27.9042 17.4813 27.9042C17.6203 27.9042 17.7579 27.8761 17.8857 27.8215C18.0136 27.767 18.1291 27.6871 18.2253 27.5868L20.6635 25.0719L26.9745 31.5799L26.0401 32.5447C26.0401 32.5447 28.1644 35.9671 31.8144 39.7291C35.8404 43.8816 41.1598 46.2115 46.473 51.6925C54.463 59.9342 61.1134 68.7843 63.5236 72.107C63.9677 72.7153 64.2293 73 64.5079 73C64.8036 73 65.1199 72.6837 65.6905 72.0948L69.1569 68.5202L72.622 64.9469C73.7328 63.7984 73.8472 63.6511 72.6329 62.7107Z" fill="#3C6E71"/>
</g>
<defs>
<clipPath id="clip0_511_1969">
<rect width="73" height="73" fill="white" transform="matrix(-1 -7.33241e-10 -7.33241e-10 1 73.5 0)"/>
</clipPath>
</defs>
</svg>
