<svg width="112" height="111" viewBox="0 0 112 111" fill="none" xmlns="http://www.w3.org/2000/svg">
<g clip-path="url(#clip0_511_1954)">
<path d="M104.749 13.066C106.805 13.8715 107.322 15.9817 106.798 18.1239C106.28 20.2749 86.5487 102.356 86.0925 103.963C85.6363 105.571 83.9221 106.062 82.035 105.715C80.1409 105.361 78.8113 103.693 79.1346 102.079C79.4511 100.456 99.9414 16.5263 100.359 15.3311C100.777 14.136 102.769 12.2927 104.749 13.066Z" fill="#B0B0B0"/>
<path d="M83.6264 100.171C84.2009 100.236 84.7536 99.8658 84.8977 99.2845L105.02 17.0826C105.17 16.4548 104.785 15.8218 104.158 15.6647C103.53 15.5154 102.898 15.8923 102.74 16.5271L82.6174 98.7289C82.4603 99.3559 82.845 99.9889 83.4798 100.147C83.5255 100.16 83.5798 100.166 83.6264 100.171Z" fill="#C8C8C8"/>
<path d="M88.5579 66.5035C88.5579 66.5035 88.2078 68.1465 87.6069 69.0144C87.1737 69.6496 86.1048 69.089 85.2951 68.1802C84.4442 67.2195 80.1498 63.4653 73.0299 60.926C64.2837 57.8183 53.3254 52.9913 46.8197 47.5808C37.5816 39.905 35.6407 34.5211 31.7571 28.376C27.8418 22.1644 25.2847 19.1798 21.1815 16.312C17.042 13.4165 15.3122 12.86 14.7454 12.7962C14.1787 12.7324 13.4883 11.1137 14.898 10.6042C16.3007 10.086 26.1647 10.5286 26.1647 10.5286L87.2664 54.9347L88.5579 66.5035Z" fill="#CC1935"/>
<path d="M100.768 16.234L88.5631 66.5278C88.5631 66.5278 85.6586 62.2304 78.7478 58.8813C70.718 54.9973 59.6077 52.0086 54.2329 48.4236C48.8582 44.8386 41.8501 37.8857 37.3926 31.3221C32.9351 24.7586 29.9885 19.1593 25.024 14.7243C20.8306 10.9815 14.9058 10.6051 14.9058 10.6051C14.9058 10.6051 19.7553 7.68418 27.8332 9.46658C37.1702 11.5166 48.4436 20.2471 53.3057 19.9378C62.6027 19.3417 64.6472 13.1252 73.9007 12.1468C88.4852 10.6052 100.768 16.234 100.768 16.234Z" fill="#FE2C23"/>
<path d="M86.8439 50.1702C85.633 49.8923 85.2311 42.2918 82.5423 36.2184C79.8535 30.1449 75.1716 24.8062 73.3268 23.2462C71.4811 21.6939 69.2987 19.7107 72.6275 18.3559C75.9563 17.0012 81.7118 16.2972 87.317 16.9284C92.7514 17.5404 94.0928 18.2654 94.3048 18.9654C94.5169 19.6654 90.9655 36.6796 89.9416 40.6053C88.9168 44.5387 87.6874 50.3596 86.8439 50.1702ZM60.1988 46.6899C60.0305 47.2763 51.276 42.2179 47.2996 36.479C44.06 31.8059 43.1126 26.6754 40.085 22.773C37.0574 18.8706 33.9444 14.9586 33.9444 14.9586C33.9444 14.9586 43.8745 17.327 48.7304 24.6115C53.5863 31.896 55.0075 36.3801 56.0172 38.5143C57.026 40.6563 60.3567 46.1259 60.1988 46.6899Z" fill="#FF5F5F"/>
<path d="M59.4584 94.9585L59.4584 92.0418L63.9355 92.0418C64.1994 89.9686 65.0153 88.0043 66.298 86.3543L63.1042 83.1897L65.1897 81.1043L68.3542 84.2981C70.0043 83.0154 71.9685 82.1994 74.0417 81.9356L74.0417 77.4585L76.9584 77.4585L76.9584 81.9356C79.0292 82.1981 80.998 83.0147 82.6459 84.2981L85.8105 81.1043L87.8959 83.1897L84.7022 86.3543C85.9849 88.0043 86.8008 89.9686 87.0647 92.0418L91.5417 92.0418L91.5417 94.9585L87.0647 94.9585C86.8022 97.0293 85.9855 98.9981 84.7022 100.646L87.8959 103.811L85.8105 105.896L82.6459 102.702C80.998 103.986 79.0292 104.802 76.9584 105.065L76.9584 109.542L74.0417 109.542L74.0417 105.065C71.9709 104.802 70.0022 103.986 68.3542 102.702L65.1897 105.896L63.1042 103.811L66.298 100.646C65.0153 98.996 64.1994 97.0317 63.9355 94.9585L59.4584 94.9585ZM75.5001 87.6668C77.0472 87.6668 78.5309 88.2814 79.6249 89.3754C80.7188 90.4693 81.3334 91.9531 81.3334 93.5002L84.2501 93.5002C84.2501 91.1795 83.3282 88.9539 81.6873 87.313C80.0463 85.672 77.8207 84.7502 75.5001 84.7502L75.5001 87.6668Z" fill="#001C1D"/>
</g>
<defs>
<clipPath id="clip0_511_1954">
<rect width="100" height="100" fill="none" transform="matrix(-0.993718 -0.111913 -0.111913 0.993718 111.281 11.1914)"/>
</clipPath>
</defs>
</svg>
