<svg width="100" height="100" viewBox="0 0 100 100" fill="none" xmlns="http://www.w3.org/2000/svg">
<g clip-path="url(#clip0_12_2)">
<path d="M55.39 -4.11028e-07C56.86 -4.11028e-07 58.175 0.915 58.67 2.285L62.2 12.07C63.465 12.385 64.55 12.7 65.47 13.03C66.475 13.39 67.77 13.935 69.37 14.68L77.59 10.33C78.261 9.97453 79.0291 9.84622 79.7791 9.96432C80.5292 10.0824 81.2207 10.4406 81.75 10.985L88.98 18.46C89.94 19.455 90.21 20.91 89.67 22.18L85.815 31.215C86.455 32.39 86.965 33.395 87.355 34.235C87.775 35.15 88.295 36.41 88.915 38.035L97.9 41.885C99.25 42.46 100.085 43.81 99.995 45.255L99.335 55.63C99.2899 56.304 99.0479 56.95 98.639 57.4877C98.2302 58.0255 97.6724 58.4313 97.035 58.655L88.525 61.68C88.28 62.855 88.025 63.86 87.755 64.71C87.3195 66.0227 86.8223 67.3142 86.265 68.58L90.54 78.03C90.8417 78.694 90.923 79.4371 90.7718 80.1506C90.6206 80.8641 90.2451 81.5104 89.7 81.995L81.57 89.255C81.0346 89.7311 80.3665 90.0322 79.6551 90.118C78.9438 90.2038 78.2233 90.0702 77.59 89.735L69.21 85.295C67.8989 85.9892 66.5464 86.602 65.16 87.13L61.5 88.5L58.25 97.5C58.0092 98.1591 57.5747 98.73 57.0036 99.1378C56.4326 99.5455 55.7516 99.7712 55.05 99.785L45.55 100C44.8298 100.019 44.1215 99.8141 43.5224 99.4139C42.9234 99.0136 42.4632 98.4376 42.205 97.765L38.375 87.63C37.0682 87.1834 35.7744 86.6999 34.495 86.18C33.4486 85.7271 32.418 85.2385 31.405 84.715L21.905 88.775C21.279 89.042 20.5889 89.1214 19.9187 89.0033C19.2485 88.8852 18.627 88.5749 18.13 88.11L11.1 81.515C10.5766 81.0261 10.2202 80.3851 10.0811 79.6825C9.942 78.9799 10.0273 78.2514 10.325 77.6L14.41 68.7C13.8667 67.6459 13.363 66.5718 12.9 65.48C12.3595 64.1437 11.8593 62.7914 11.4 61.425L2.45 58.7C1.7225 58.4801 1.08797 58.0262 0.644949 57.4086C0.201926 56.7911 -0.0247933 56.0446 5.68893e-07 55.285L0.350001 45.68C0.374914 45.0533 0.570684 44.4454 0.91614 43.9219C1.2616 43.3984 1.74359 42.9793 2.31 42.71L11.7 38.2C12.135 36.605 12.515 35.365 12.85 34.46C13.3217 33.2512 13.8455 32.0634 14.42 30.9L10.35 22.3C10.0411 21.6469 9.94733 20.9127 10.0821 20.2029C10.2169 19.4932 10.5732 18.8444 11.1 18.35L18.12 11.72C18.6121 11.2559 19.2279 10.9438 19.8931 10.8214C20.5584 10.699 21.2449 10.7714 21.87 11.03L31.36 14.95C32.41 14.25 33.36 13.685 34.22 13.23C35.245 12.685 36.615 12.115 38.34 11.5L41.64 2.295C41.884 1.62134 42.3299 1.03941 42.917 0.628655C43.504 0.217904 44.2035 -0.00164079 44.92 -4.11028e-07H55.39ZM50.12 35.095C41.785 35.095 35.03 41.77 35.03 50.01C35.03 58.25 41.785 64.93 50.12 64.93C58.45 64.93 65.205 58.25 65.205 50.01C65.205 41.77 58.455 35.095 50.12 35.095Z" fill="#0C4A4E" fill-opacity="0.93"/>
</g>
<defs>
<clipPath id="clip0_12_2">
<rect width="100" height="100" fill="white"/>
</clipPath>
</defs>
</svg>
